<?xml version="1.0" encoding="UTF-8"?>
<!-- Generator: Adobe Illustrator 23.0.1, SVG Export Plug-In . SVG Version: 6.00 Build 0)  -->
<svg xmlns="http://www.w3.org/2000/svg" xmlns:xlink="http://www.w3.org/1999/xlink" version="1.1" id="Livello_1" x="0px" y="0px" viewBox="0 0 43.9 31" style="enable-background:new 0 0 43.9 31;" xml:space="preserve">
<style type="text/css">
	.st0{clip-path:url(#SVGID_2_);fill:#FFFFFF;}
	.st1{clip-path:url(#SVGID_2_);fill:#020203;}
	.st2{fill:#020203;}
	.st3{clip-path:url(#SVGID_4_);fill:#020203;}
	.st4{clip-path:url(#SVGID_6_);fill:#020203;}
	.st5{clip-path:url(#SVGID_8_);fill:#020203;}
	.st6{clip-path:url(#SVGID_8_);fill:#FFFFFF;}
	.st7{clip-path:url(#SVGID_10_);fill:#020203;}
	.st8{clip-path:url(#SVGID_12_);fill:#020203;}
	.st9{clip-path:url(#SVGID_14_);fill:#020203;}
	.st10{clip-path:url(#SVGID_16_);fill:#020203;}
	.st11{clip-path:url(#SVGID_18_);fill:#020203;}
</style>
<g>
	<defs>
		<polygon id="SVGID_1_" points="0,31 44,31 43.7,-0.1 -0.3,-0.1   "></polygon>
	</defs>
	<clipPath id="SVGID_2_">
		<use xlink:href="#SVGID_1_" style="overflow:visible;"></use>
	</clipPath>
	<path class="st0" d="M41.9,12.9H0.4c-0.1,0-0.2-0.1-0.2-0.2V1.6C0.2,0.7,0.9,0,1.7,0h40.2c0.9,0,1.5,0.7,1.5,1.6v9.8   C43.5,12.2,42.8,12.9,41.9,12.9"></path>
	<path class="st1" d="M42-0.1H1.6c-0.9,0-1.7,0.8-1.7,1.7v9.9c0,0.9,0.8,1.7,1.7,1.7H42c0.9,0,1.7-0.8,1.7-1.7V1.6   C43.7,0.6,42.9-0.1,42-0.1 M42,0.2c0.8,0,1.4,0.6,1.4,1.4v9.9c0,0.8-0.6,1.4-1.4,1.4H1.6c-0.8,0-1.4-0.6-1.4-1.4V1.6   c0-0.8,0.6-1.4,1.4-1.4H42z"></path>
	<path class="st1" d="M3.8,5.3C3.1,6.5,3.6,8.4,4.3,9.6c0.4,0.6,0.8,1.1,1.3,1.1c0,0,0,0,0,0c0.3,0,0.4-0.1,0.6-0.2   c0.2-0.1,0.4-0.2,0.7-0.2c0.3,0,0.5,0.1,0.7,0.2c0.2,0.1,0.4,0.2,0.7,0.2c0.6,0,1-0.6,1.3-1c0.3-0.5,0.5-1,0.6-1.2l0,0   c0,0,0-0.1,0-0.1c0,0,0,0,0,0c-0.1,0-1.1-0.5-1.1-1.6c0-0.9,0.7-1.4,0.9-1.5l0,0c0,0,0,0,0,0c0,0,0,0,0-0.1   C9.6,4.3,8.8,4.2,8.5,4.2c0,0-0.1,0-0.1,0c-0.4,0-0.7,0.1-1,0.2C7.2,4.5,7.1,4.6,6.9,4.6c-0.1,0-0.3-0.1-0.5-0.1   C6.2,4.4,5.9,4.2,5.6,4.2c0,0,0,0,0,0C4.9,4.3,4.2,4.7,3.8,5.3"></path>
	<path class="st1" d="M8.5,2.2c-0.4,0-1,0.3-1.3,0.7C7,3.2,6.7,3.7,6.8,4.2c0,0,0,0.1,0.1,0.1c0,0,0.1,0,0.1,0   c0.4,0,0.9-0.2,1.2-0.6C8.5,3.3,8.7,2.7,8.5,2.2C8.6,2.3,8.6,2.2,8.5,2.2"></path>
	<path class="st1" d="M14.3,4.1c0.2,0,0.4,0,0.5-0.1c0.1-0.1,0.3-0.2,0.3-0.3c0.1-0.1,0.1-0.3,0.1-0.5c0-0.2,0-0.3-0.1-0.5   c-0.1-0.1-0.2-0.2-0.3-0.3c-0.1-0.1-0.3-0.1-0.5-0.1h-0.7v1.8H14.3z M13.5,2.2h0.8c0.2,0,0.4,0,0.6,0.1c0.2,0.1,0.3,0.2,0.4,0.4   c0.1,0.2,0.1,0.3,0.1,0.5c0,0.2,0,0.4-0.1,0.5c-0.1,0.2-0.2,0.3-0.4,0.4c-0.2,0.1-0.4,0.1-0.6,0.1h-0.8V2.2z"></path>
	<path class="st1" d="M16.9,4.1C17,4,17,3.9,17.1,3.8c0.1-0.1,0.1-0.2,0.1-0.3c0-0.1,0-0.2-0.1-0.3C17,3.1,17,3,16.9,2.9   c-0.1-0.1-0.2-0.1-0.3-0.1s-0.2,0-0.3,0.1C16.1,3,16.1,3.1,16,3.2c-0.1,0.1-0.1,0.2-0.1,0.3c0,0.1,0,0.2,0.1,0.3   c0.1,0.1,0.1,0.2,0.2,0.2c0.1,0.1,0.2,0.1,0.3,0.1S16.8,4.1,16.9,4.1 M16.1,4.2C16,4.1,15.9,4,15.9,3.9c-0.1-0.1-0.1-0.3-0.1-0.4   c0-0.2,0-0.3,0.1-0.4C15.9,3,16,2.9,16.1,2.8c0.1-0.1,0.2-0.1,0.4-0.1s0.3,0,0.4,0.1c0.1,0.1,0.2,0.2,0.3,0.3   c0.1,0.1,0.1,0.3,0.1,0.4c0,0.2,0,0.3-0.1,0.4c-0.1,0.1-0.2,0.2-0.3,0.3c-0.1,0.1-0.2,0.1-0.4,0.1S16.3,4.3,16.1,4.2"></path>
</g>
<polygon class="st2" points="20,2.7 19.4,4.3 19.2,4.3 18.7,2.9 18.2,4.3 18,4.3 17.5,2.7 17.6,2.7 18.1,4.1 18.6,2.7 18.8,2.7   19.3,4.1 19.8,2.7 "></polygon>
<g>
	<defs>
		<polygon id="SVGID_3_" points="0,31 44,31 43.7,-0.1 -0.3,-0.1   "></polygon>
	</defs>
	<clipPath id="SVGID_4_">
		<use xlink:href="#SVGID_3_" style="overflow:visible;"></use>
	</clipPath>
	<path class="st3" d="M22.2,2.9c0.1,0.1,0.2,0.3,0.2,0.5v0.9h-0.1V3.4c0-0.2,0-0.3-0.1-0.4c-0.1-0.1-0.2-0.1-0.4-0.1   c-0.2,0-0.3,0.1-0.4,0.2c-0.1,0.1-0.2,0.3-0.2,0.4v0.8H21V2.7h0.1v0.3c0.1-0.1,0.1-0.2,0.2-0.3c0.1-0.1,0.2-0.1,0.4-0.1   C22,2.7,22.1,2.8,22.2,2.9"></path>
</g>
<rect x="23" y="2.1" class="st2" width="0.1" height="2.2"></rect>
<g>
	<defs>
		<polygon id="SVGID_5_" points="0,31 44,31 43.7,-0.1 -0.3,-0.1   "></polygon>
	</defs>
	<clipPath id="SVGID_6_">
		<use xlink:href="#SVGID_5_" style="overflow:visible;"></use>
	</clipPath>
	<path class="st4" d="M24.7,4.1c0.1-0.1,0.2-0.1,0.2-0.2C25,3.7,25,3.6,25,3.5c0-0.1,0-0.2-0.1-0.3c-0.1-0.1-0.1-0.2-0.2-0.2   c-0.1-0.1-0.2-0.1-0.3-0.1s-0.2,0-0.3,0.1C24,3,23.9,3.1,23.8,3.2c-0.1,0.1-0.1,0.2-0.1,0.3c0,0.1,0,0.2,0.1,0.3   C23.9,3.9,24,4,24.1,4.1c0.1,0.1,0.2,0.1,0.3,0.1S24.6,4.1,24.7,4.1 M24,4.2c-0.1-0.1-0.2-0.2-0.3-0.3c-0.1-0.1-0.1-0.3-0.1-0.4   c0-0.2,0-0.3,0.1-0.4C23.8,3,23.9,2.9,24,2.8c0.1-0.1,0.2-0.1,0.4-0.1c0.1,0,0.3,0,0.4,0.1C24.9,2.9,25,3,25.1,3.1   c0.1,0.1,0.1,0.3,0.1,0.4c0,0.2,0,0.3-0.1,0.4C25,4,24.9,4.1,24.8,4.2c-0.1,0.1-0.3,0.1-0.4,0.1C24.2,4.3,24.1,4.3,24,4.2"></path>
	<path class="st4" d="M26.4,4.1c0.1-0.1,0.2-0.1,0.2-0.3V3.5h-0.5c-0.2,0-0.3,0-0.3,0.1c-0.1,0.1-0.1,0.1-0.1,0.2   c0,0.1,0,0.2,0.1,0.2c0.1,0.1,0.2,0.1,0.3,0.1C26.2,4.2,26.3,4.1,26.4,4.1 M26.6,2.9c0.1,0.1,0.2,0.2,0.2,0.4v1h-0.1V4   c0,0.1-0.1,0.2-0.2,0.2c-0.1,0.1-0.2,0.1-0.3,0.1c-0.2,0-0.3,0-0.4-0.1c-0.1-0.1-0.1-0.2-0.1-0.3c0-0.1,0-0.2,0.1-0.3   c0.1-0.1,0.2-0.1,0.4-0.1h0.5V3.3c0-0.1,0-0.3-0.1-0.3c-0.1-0.1-0.2-0.1-0.3-0.1c-0.1,0-0.2,0-0.3,0.1c-0.1,0-0.2,0.1-0.2,0.1   l-0.1-0.1c0.1-0.1,0.2-0.1,0.3-0.2c0.1,0,0.2-0.1,0.3-0.1C26.3,2.7,26.5,2.8,26.6,2.9"></path>
	<path class="st4" d="M28.3,4.1c0.1-0.1,0.2-0.1,0.2-0.2c0.1-0.1,0.1-0.2,0.1-0.3c0-0.1,0-0.2-0.1-0.3c-0.1-0.1-0.1-0.2-0.2-0.2   c-0.1-0.1-0.2-0.1-0.3-0.1s-0.2,0-0.3,0.1c-0.1,0.1-0.2,0.1-0.2,0.2c-0.1,0.1-0.1,0.2-0.1,0.3c0,0.1,0,0.2,0.1,0.3   c0.1,0.1,0.1,0.2,0.2,0.2c0.1,0.1,0.2,0.1,0.3,0.1S28.2,4.1,28.3,4.1 M28.7,2.1v2.2h-0.1V3.9c-0.1,0.1-0.1,0.2-0.3,0.3   c-0.1,0.1-0.2,0.1-0.4,0.1c-0.1,0-0.3,0-0.4-0.1c-0.1-0.1-0.2-0.2-0.3-0.3c-0.1-0.1-0.1-0.3-0.1-0.4c0-0.2,0-0.3,0.1-0.4   c0.1-0.1,0.2-0.2,0.3-0.3c0.1-0.1,0.2-0.1,0.4-0.1c0.1,0,0.3,0,0.4,0.1c0.1,0.1,0.2,0.2,0.3,0.3v-1H28.7z"></path>
	<path class="st4" d="M31.1,4.1c0.1-0.1,0.2-0.1,0.2-0.2c0.1-0.1,0.1-0.2,0.1-0.3c0-0.1,0-0.2-0.1-0.3c-0.1-0.1-0.1-0.2-0.2-0.2   c-0.1-0.1-0.2-0.1-0.3-0.1s-0.2,0-0.3,0.1c-0.1,0.1-0.2,0.1-0.2,0.2c-0.1,0.1-0.1,0.2-0.1,0.3c0,0.1,0,0.2,0.1,0.3   c0.1,0.1,0.1,0.2,0.2,0.2c0.1,0.1,0.2,0.1,0.3,0.1S31,4.1,31.1,4.1 M30.3,4.2c-0.1-0.1-0.2-0.2-0.3-0.3C30,3.8,30,3.6,30,3.5   c0-0.2,0-0.3,0.1-0.4c0.1-0.1,0.2-0.2,0.3-0.3c0.1-0.1,0.2-0.1,0.4-0.1s0.3,0,0.4,0.1c0.1,0.1,0.2,0.2,0.3,0.3   c0.1,0.1,0.1,0.3,0.1,0.4c0,0.2,0,0.3-0.1,0.4c-0.1,0.1-0.2,0.2-0.3,0.3c-0.1,0.1-0.2,0.1-0.4,0.1S30.5,4.3,30.3,4.2"></path>
	<path class="st4" d="M33.2,2.9c0.1,0.1,0.2,0.3,0.2,0.5v0.9h-0.1V3.4c0-0.2,0-0.3-0.1-0.4c-0.1-0.1-0.2-0.1-0.4-0.1   c-0.2,0-0.3,0.1-0.4,0.2c-0.1,0.1-0.2,0.3-0.2,0.4v0.8H32V2.7h0.1v0.3c0.1-0.1,0.1-0.2,0.2-0.3c0.1-0.1,0.2-0.1,0.4-0.1   C32.9,2.7,33.1,2.8,33.2,2.9"></path>
	<path class="st4" d="M35.5,4.2c0,0-0.1,0.1-0.1,0.1c-0.1,0-0.1,0-0.2,0c-0.1,0-0.2,0-0.3-0.1c-0.1-0.1-0.1-0.2-0.1-0.3v-1h-0.3V2.7   h0.3V2.4h0.1v0.3h0.5v0.1h-0.5v1c0,0.1,0,0.2,0.1,0.2c0,0.1,0.1,0.1,0.2,0.1c0.1,0,0.2,0,0.2-0.1L35.5,4.2z"></path>
	<path class="st4" d="M37.1,2.9c0.1,0.1,0.2,0.3,0.2,0.5v0.9h-0.1V3.4c0-0.2,0-0.3-0.1-0.4c-0.1-0.1-0.2-0.1-0.4-0.1   c-0.2,0-0.3,0.1-0.4,0.2c-0.1,0.1-0.2,0.3-0.2,0.4v0.8h-0.1V2.1h0.1v1c0.1-0.1,0.1-0.2,0.2-0.2c0.1-0.1,0.2-0.1,0.4-0.1   C36.9,2.7,37,2.8,37.1,2.9"></path>
	<path class="st4" d="M38.2,2.9C38.1,3,38,3,38,3.1c-0.1,0.1-0.1,0.2-0.1,0.3h1.2c0-0.1,0-0.2-0.1-0.3C38.9,3,38.9,3,38.8,2.9   c-0.1-0.1-0.2-0.1-0.3-0.1C38.4,2.8,38.3,2.9,38.2,2.9 M39.2,3.5h-1.3c0,0.1,0,0.2,0.1,0.3C38,3.9,38.1,4,38.2,4.1   c0.1,0.1,0.2,0.1,0.3,0.1c0.1,0,0.2,0,0.3-0.1c0.1,0,0.2-0.1,0.2-0.2L39.1,4c-0.1,0.1-0.2,0.1-0.3,0.2c-0.1,0-0.2,0.1-0.3,0.1   c-0.2,0-0.3,0-0.4-0.1S37.9,4,37.9,3.9c-0.1-0.1-0.1-0.3-0.1-0.4c0-0.1,0-0.3,0.1-0.4C37.9,3,38,2.9,38.1,2.8   c0.1-0.1,0.2-0.1,0.4-0.1c0.1,0,0.3,0,0.4,0.1C39,2.9,39.1,3,39.1,3.1C39.2,3.2,39.2,3.3,39.2,3.5L39.2,3.5z"></path>
</g>
<path class="st2" d="M15.5,8.4l-0.7-1.6l-0.7,1.6H15.5z M15.7,8.9H14l-0.3,0.8h-0.7l1.6-3.6h0.7l1.6,3.6h-0.7L15.7,8.9z"></path>
<g>
	<defs>
		<polygon id="SVGID_7_" points="0,31 44,31 43.7,-0.1 -0.3,-0.1   "></polygon>
	</defs>
	<clipPath id="SVGID_8_">
		<use xlink:href="#SVGID_7_" style="overflow:visible;"></use>
	</clipPath>
	<path class="st5" d="M19.2,9c0.1-0.2,0.2-0.4,0.2-0.6s-0.1-0.5-0.2-0.6c-0.2-0.2-0.3-0.2-0.6-0.2c-0.2,0-0.3,0-0.4,0.1   c-0.1,0.1-0.2,0.2-0.3,0.3c-0.1,0.1-0.1,0.3-0.1,0.4s0,0.3,0.1,0.4s0.2,0.2,0.3,0.3c0.1,0.1,0.3,0.1,0.4,0.1   C18.8,9.2,19,9.1,19.2,9 M19.4,7.1c0.2,0.1,0.4,0.3,0.5,0.5c0.1,0.2,0.2,0.5,0.2,0.7S20,8.9,19.9,9.1c-0.1,0.2-0.3,0.4-0.5,0.5   c-0.2,0.1-0.4,0.2-0.7,0.2c-0.4,0-0.7-0.1-0.9-0.4v1.3h-0.6V7h0.6v0.4C17.9,7.2,18,7.1,18.2,7C18.3,7,18.5,7,18.7,7   C18.9,7,19.2,7,19.4,7.1"></path>
	<path class="st5" d="M23.4,9c0.1-0.2,0.2-0.4,0.2-0.6s-0.1-0.5-0.2-0.6c-0.2-0.2-0.3-0.2-0.6-0.2c-0.2,0-0.3,0-0.4,0.1   c-0.1,0.1-0.2,0.2-0.3,0.3C22,8,22,8.2,22,8.3s0,0.3,0.1,0.4s0.2,0.2,0.3,0.3c0.1,0.1,0.3,0.1,0.4,0.1C23,9.2,23.2,9.1,23.4,9    M23.6,7.1c0.2,0.1,0.4,0.3,0.5,0.5c0.1,0.2,0.2,0.5,0.2,0.7s-0.1,0.5-0.2,0.7c-0.1,0.2-0.3,0.4-0.5,0.5c-0.2,0.1-0.4,0.2-0.7,0.2   c-0.4,0-0.7-0.1-0.9-0.4v1.3h-0.6V7H22v0.4c0.1-0.1,0.2-0.2,0.4-0.3C22.5,7,22.7,7,22.9,7C23.1,7,23.4,7,23.6,7.1"></path>
	<path class="st5" d="M26.6,9.6c-0.3-0.1-0.5-0.2-0.6-0.3l0.2-0.5c0.1,0.1,0.3,0.2,0.5,0.3c0.2,0.1,0.4,0.1,0.6,0.1   c0.3,0,0.5,0,0.6-0.1c0.1-0.1,0.2-0.2,0.2-0.3c0-0.1,0-0.2-0.1-0.3s-0.2-0.1-0.3-0.2c-0.1,0-0.3-0.1-0.5-0.1   c-0.3-0.1-0.5-0.1-0.7-0.2c-0.2-0.1-0.3-0.2-0.4-0.3c-0.1-0.1-0.2-0.3-0.2-0.6c0-0.2,0.1-0.4,0.2-0.5c0.1-0.2,0.3-0.3,0.5-0.4   c0.2-0.1,0.5-0.1,0.8-0.1c0.2,0,0.4,0,0.6,0.1c0.2,0.1,0.4,0.1,0.5,0.2l-0.2,0.5c-0.2-0.1-0.3-0.2-0.5-0.2c-0.2,0-0.3-0.1-0.5-0.1   c-0.3,0-0.5,0-0.6,0.1c-0.1,0.1-0.2,0.2-0.2,0.4c0,0.1,0,0.2,0.1,0.2c0.1,0.1,0.2,0.1,0.3,0.2c0.1,0,0.3,0.1,0.5,0.1   c0.3,0.1,0.5,0.1,0.7,0.2c0.2,0.1,0.3,0.2,0.4,0.3c0.1,0.1,0.2,0.3,0.2,0.5c0,0.2-0.1,0.4-0.2,0.5c-0.1,0.2-0.3,0.3-0.5,0.4   c-0.2,0.1-0.5,0.1-0.8,0.1C27.1,9.7,26.9,9.7,26.6,9.6"></path>
	<path class="st5" d="M31.1,9.5c-0.1,0.1-0.2,0.1-0.3,0.1c-0.1,0-0.2,0-0.3,0c-0.3,0-0.5-0.1-0.7-0.2c-0.2-0.2-0.2-0.4-0.2-0.7V7.5   h-0.4V7h0.4V6.4h0.6V7h0.7v0.5h-0.7v1.3c0,0.1,0,0.2,0.1,0.3c0.1,0.1,0.2,0.1,0.3,0.1c0.1,0,0.3,0,0.4-0.1L31.1,9.5z"></path>
	<path class="st5" d="M33.3,9c0.2-0.2,0.2-0.4,0.2-0.6s-0.1-0.5-0.2-0.6c-0.2-0.2-0.3-0.2-0.6-0.2c-0.2,0-0.4,0.1-0.6,0.2   c-0.2,0.2-0.2,0.4-0.2,0.6S32,8.8,32.2,9c0.2,0.2,0.3,0.2,0.6,0.2C33,9.2,33.2,9.1,33.3,9 M32,9.6c-0.2-0.1-0.4-0.3-0.5-0.5   c-0.1-0.2-0.2-0.5-0.2-0.7c0-0.3,0.1-0.5,0.2-0.7c0.1-0.2,0.3-0.4,0.5-0.5C32.2,7,32.5,7,32.7,7C33,7,33.3,7,33.5,7.1   c0.2,0.1,0.4,0.3,0.5,0.5c0.1,0.2,0.2,0.4,0.2,0.7c0,0.3-0.1,0.5-0.2,0.7c-0.1,0.2-0.3,0.4-0.5,0.5c-0.2,0.1-0.5,0.2-0.7,0.2   C32.5,9.7,32.2,9.7,32,9.6"></path>
	<path class="st5" d="M36.4,7v0.6c-0.1,0-0.1,0-0.1,0c-0.2,0-0.4,0.1-0.6,0.2c-0.1,0.1-0.2,0.4-0.2,0.6v1.3h-0.6V7h0.6v0.4   C35.6,7.1,35.9,7,36.4,7"></path>
	<path class="st5" d="M37.5,7.6c-0.1,0.1-0.2,0.3-0.3,0.5h1.5c0-0.2-0.1-0.4-0.2-0.5c-0.1-0.1-0.3-0.2-0.5-0.2   C37.8,7.5,37.7,7.5,37.5,7.6 M39.4,8.5h-2.1c0,0.2,0.1,0.4,0.3,0.5c0.2,0.1,0.4,0.2,0.6,0.2c0.3,0,0.5-0.1,0.7-0.3l0.3,0.4   c-0.1,0.1-0.3,0.3-0.5,0.3c-0.2,0.1-0.4,0.1-0.6,0.1c-0.3,0-0.6-0.1-0.8-0.2c-0.2-0.1-0.4-0.3-0.5-0.5c-0.1-0.2-0.2-0.5-0.2-0.7   c0-0.3,0.1-0.5,0.2-0.7c0.1-0.2,0.3-0.4,0.5-0.5C37.5,7,37.8,7,38,7c0.3,0,0.5,0.1,0.7,0.2c0.2,0.1,0.4,0.3,0.5,0.5   s0.2,0.5,0.2,0.7C39.4,8.4,39.4,8.5,39.4,8.5"></path>
	<path class="st6" d="M42.1,30.8H1.8c-0.8,0-1.5-0.7-1.5-1.5v-9.9c0-0.8,0.7-1.5,1.5-1.5h40.4c0.8,0,1.5,0.7,1.5,1.5v9.9   C43.6,30.1,42.9,30.8,42.1,30.8"></path>
	<path class="st5" d="M42.1,17.7H1.7c-0.9,0-1.7,0.8-1.7,1.7v9.9C0,30.3,0.8,31,1.7,31h40.4c0.9,0,1.7-0.8,1.7-1.7v-9.9   C43.8,18.5,43,17.7,42.1,17.7 M42.1,18c0.8,0,1.4,0.6,1.4,1.4v9.9c0,0.8-0.6,1.4-1.4,1.4H1.7c-0.8,0-1.4-0.6-1.4-1.4v-9.9   c0-0.8,0.6-1.4,1.4-1.4H42.1z"></path>
</g>
<path class="st2" d="M13.6,21.4L13,20.2l-0.5,1.2H13.6z M13.6,21.5h-1.2l-0.3,0.6H12l1-2.1h0.2l1,2.1h-0.2L13.6,21.5z"></path>
<polygon class="st2" points="15.5,20.5 14.8,22.1 14.7,22.1 14,20.5 14.2,20.5 14.8,21.9 15.4,20.5 "></polygon>
<g>
	<defs>
		<polygon id="SVGID_9_" points="0,31 44,31 43.7,-0.1 -0.3,-0.1   "></polygon>
	</defs>
	<clipPath id="SVGID_10_">
		<use xlink:href="#SVGID_9_" style="overflow:visible;"></use>
	</clipPath>
	<path class="st7" d="M16.6,21.9c0.1-0.1,0.2-0.1,0.2-0.3v-0.3h-0.5c-0.2,0-0.3,0-0.3,0.1c-0.1,0.1-0.1,0.1-0.1,0.2   c0,0.1,0,0.2,0.1,0.2C16,22,16.1,22,16.3,22C16.4,22,16.5,22,16.6,21.9 M16.8,20.7c0.1,0.1,0.2,0.2,0.2,0.4v1h-0.1v-0.3   c0,0.1-0.1,0.2-0.2,0.2c-0.1,0.1-0.2,0.1-0.3,0.1c-0.2,0-0.3,0-0.4-0.1c-0.1-0.1-0.1-0.2-0.1-0.3c0-0.1,0-0.2,0.1-0.3   c0.1-0.1,0.2-0.1,0.4-0.1h0.5v-0.1c0-0.1,0-0.3-0.1-0.3c-0.1-0.1-0.2-0.1-0.3-0.1c-0.1,0-0.2,0-0.3,0.1c-0.1,0-0.2,0.1-0.2,0.1   l-0.1-0.1c0.1-0.1,0.2-0.1,0.3-0.2c0.1,0,0.2-0.1,0.3-0.1C16.5,20.5,16.7,20.6,16.8,20.7"></path>
	<path class="st7" d="M17.6,20.5h0.1v1.6h-0.1V20.5z M17.5,20.1C17.5,20.1,17.5,20.1,17.5,20.1c0-0.1,0-0.1,0-0.2c0,0,0.1,0,0.1,0   s0.1,0,0.1,0c0,0,0,0.1,0,0.1c0,0,0,0.1,0,0.1C17.7,20.2,17.7,20.2,17.5,20.1C17.6,20.2,17.6,20.2,17.5,20.1"></path>
</g>
<rect x="18.3" y="19.9" class="st2" width="0.1" height="2.2"></rect>
<g>
	<defs>
		<polygon id="SVGID_11_" points="0,31 44,31 43.7,-0.1 -0.3,-0.1   "></polygon>
	</defs>
	<clipPath id="SVGID_12_">
		<use xlink:href="#SVGID_11_" style="overflow:visible;"></use>
	</clipPath>
	<path class="st8" d="M19.9,21.9c0.1-0.1,0.2-0.1,0.2-0.3v-0.3h-0.5c-0.2,0-0.3,0-0.3,0.1c-0.1,0.1-0.1,0.1-0.1,0.2   c0,0.1,0,0.2,0.1,0.2c0.1,0.1,0.2,0.1,0.3,0.1C19.7,22,19.8,22,19.9,21.9 M20.1,20.7c0.1,0.1,0.2,0.2,0.2,0.4v1h-0.1v-0.3   c0,0.1-0.1,0.2-0.2,0.2c-0.1,0.1-0.2,0.1-0.3,0.1c-0.2,0-0.3,0-0.4-0.1C19,21.9,19,21.8,19,21.7c0-0.1,0-0.2,0.1-0.3   c0.1-0.1,0.2-0.1,0.4-0.1h0.5v-0.1c0-0.1,0-0.3-0.1-0.3c-0.1-0.1-0.2-0.1-0.3-0.1c-0.1,0-0.2,0-0.3,0.1c-0.1,0-0.2,0.1-0.2,0.1   L19,20.8c0.1-0.1,0.2-0.1,0.3-0.2c0.1,0,0.2-0.1,0.3-0.1C19.8,20.5,20,20.6,20.1,20.7"></path>
	<path class="st8" d="M21.9,21.9c0.1-0.1,0.2-0.1,0.2-0.2c0.1-0.1,0.1-0.2,0.1-0.3s0-0.2-0.1-0.3c-0.1-0.1-0.1-0.2-0.2-0.2   c-0.1-0.1-0.2-0.1-0.3-0.1s-0.2,0-0.3,0.1c-0.1,0.1-0.2,0.1-0.2,0.2C21,21.1,21,21.2,21,21.3s0,0.2,0.1,0.3   c0.1,0.1,0.1,0.2,0.2,0.2c0.1,0.1,0.2,0.1,0.3,0.1S21.8,21.9,21.9,21.9 M22,20.6c0.1,0.1,0.2,0.2,0.3,0.3c0.1,0.1,0.1,0.3,0.1,0.4   c0,0.2,0,0.3-0.1,0.4c-0.1,0.1-0.2,0.2-0.3,0.3c-0.1,0.1-0.2,0.1-0.4,0.1c-0.1,0-0.3,0-0.4-0.1c-0.1-0.1-0.2-0.2-0.3-0.3v0.4h-0.1   v-2.2H21v1c0.1-0.1,0.1-0.2,0.3-0.3c0.1-0.1,0.2-0.1,0.4-0.1C21.8,20.5,21.9,20.6,22,20.6"></path>
</g>
<rect x="22.8" y="19.9" class="st2" width="0.1" height="2.2"></rect>
<g>
	<defs>
		<polygon id="SVGID_13_" points="0,31 44,31 43.7,-0.1 -0.3,-0.1   "></polygon>
	</defs>
	<clipPath id="SVGID_14_">
		<use xlink:href="#SVGID_13_" style="overflow:visible;"></use>
	</clipPath>
	<path class="st9" d="M23.9,20.7c-0.1,0-0.2,0.1-0.2,0.2c-0.1,0.1-0.1,0.2-0.1,0.3h1.2c0-0.1,0-0.2-0.1-0.3   c-0.1-0.1-0.1-0.2-0.2-0.2c-0.1-0.1-0.2-0.1-0.3-0.1C24.1,20.7,24,20.7,23.9,20.7 M24.9,21.4h-1.3c0,0.1,0,0.2,0.1,0.3   c0.1,0.1,0.1,0.2,0.2,0.2c0.1,0.1,0.2,0.1,0.3,0.1c0.1,0,0.2,0,0.3-0.1c0.1,0,0.2-0.1,0.2-0.2l0.1,0.1c-0.1,0.1-0.2,0.1-0.3,0.2   c-0.1,0-0.2,0.1-0.3,0.1c-0.2,0-0.3,0-0.4-0.1c-0.1-0.1-0.2-0.2-0.3-0.3c-0.1-0.1-0.1-0.3-0.1-0.4c0-0.1,0-0.3,0.1-0.4   c0.1-0.1,0.2-0.2,0.3-0.3c0.1-0.1,0.2-0.1,0.4-0.1c0.1,0,0.3,0,0.4,0.1c0.1,0.1,0.2,0.2,0.3,0.3C24.9,21,24.9,21.2,24.9,21.4   L24.9,21.4z"></path>
	<path class="st9" d="M27.1,21.9c0.1-0.1,0.2-0.1,0.2-0.2c0.1-0.1,0.1-0.2,0.1-0.3c0-0.1,0-0.2-0.1-0.3c-0.1-0.1-0.1-0.2-0.2-0.2   c-0.1-0.1-0.2-0.1-0.3-0.1s-0.2,0-0.3,0.1c-0.1,0.1-0.2,0.1-0.2,0.2c-0.1,0.1-0.1,0.2-0.1,0.3c0,0.1,0,0.2,0.1,0.3   c0.1,0.1,0.1,0.2,0.2,0.2c0.1,0.1,0.2,0.1,0.3,0.1S27,21.9,27.1,21.9 M26.4,22c-0.1-0.1-0.2-0.2-0.3-0.3C26,21.6,26,21.5,26,21.3   c0-0.1,0-0.3,0.1-0.4c0.1-0.1,0.2-0.2,0.3-0.3c0.1-0.1,0.2-0.1,0.4-0.1c0.1,0,0.3,0,0.4,0.1c0.1,0.1,0.2,0.2,0.3,0.3   c0.1,0.1,0.1,0.3,0.1,0.4c0,0.2,0,0.3-0.1,0.4c-0.1,0.1-0.2,0.2-0.3,0.3c-0.1,0.1-0.3,0.1-0.4,0.1C26.6,22.1,26.5,22.1,26.4,22"></path>
	<path class="st9" d="M29.2,20.7c0.1,0.1,0.2,0.3,0.2,0.5v0.9h-0.1v-0.9c0-0.2,0-0.3-0.1-0.4c-0.1-0.1-0.2-0.1-0.4-0.1   c-0.2,0-0.3,0.1-0.4,0.2c-0.1,0.1-0.2,0.3-0.2,0.4v0.8H28v-1.6h0.1v0.3c0.1-0.1,0.1-0.2,0.2-0.3c0.1-0.1,0.2-0.1,0.4-0.1   C29,20.5,29.1,20.6,29.2,20.7"></path>
	<path class="st9" d="M31.5,22c0,0-0.1,0.1-0.1,0.1c-0.1,0-0.1,0-0.2,0c-0.1,0-0.2,0-0.3-0.1c-0.1-0.1-0.1-0.2-0.1-0.3v-1h-0.3v-0.1   h0.3v-0.3h0.1v0.3h0.5v0.1h-0.5v1c0,0.1,0,0.2,0.1,0.2c0,0.1,0.1,0.1,0.2,0.1c0.1,0,0.2,0,0.2-0.1L31.5,22z"></path>
	<path class="st9" d="M33.2,20.7c0.1,0.1,0.2,0.3,0.2,0.5v0.9h-0.1v-0.9c0-0.2,0-0.3-0.1-0.4c-0.1-0.1-0.2-0.1-0.4-0.1   c-0.2,0-0.3,0.1-0.4,0.2c-0.1,0.1-0.2,0.3-0.2,0.4v0.8H32v-2.2h0.1v1c0.1-0.1,0.1-0.2,0.2-0.2c0.1-0.1,0.2-0.1,0.4-0.1   C32.9,20.5,33.1,20.6,33.2,20.7"></path>
	<path class="st9" d="M34.2,20.7c-0.1,0-0.2,0.1-0.2,0.2c-0.1,0.1-0.1,0.2-0.1,0.3h1.2c0-0.1,0-0.2-0.1-0.3   c-0.1-0.1-0.1-0.2-0.2-0.2c-0.1-0.1-0.2-0.1-0.3-0.1C34.4,20.7,34.3,20.7,34.2,20.7 M35.3,21.4h-1.3c0,0.1,0,0.2,0.1,0.3   c0.1,0.1,0.1,0.2,0.2,0.2c0.1,0.1,0.2,0.1,0.3,0.1c0.1,0,0.2,0,0.3-0.1c0.1,0,0.2-0.1,0.2-0.2l0.1,0.1C35.1,21.9,35,22,34.9,22   c-0.1,0-0.2,0.1-0.3,0.1c-0.2,0-0.3,0-0.4-0.1c-0.1-0.1-0.2-0.2-0.3-0.3c-0.1-0.1-0.1-0.3-0.1-0.4c0-0.1,0-0.3,0.1-0.4   c0.1-0.1,0.2-0.2,0.3-0.3c0.1-0.1,0.2-0.1,0.4-0.1c0.1,0,0.3,0,0.4,0.1c0.1,0.1,0.2,0.2,0.3,0.3C35.2,21,35.3,21.2,35.3,21.4   L35.3,21.4z"></path>
	<path class="st9" d="M14.3,25.7H15v1.4c-0.2,0.1-0.4,0.3-0.6,0.3c-0.2,0.1-0.5,0.1-0.7,0.1c-0.4,0-0.7-0.1-1-0.2S12.1,27,12,26.7   c-0.2-0.3-0.2-0.6-0.2-0.9s0.1-0.6,0.2-0.9c0.2-0.3,0.4-0.5,0.7-0.6c0.3-0.2,0.6-0.2,1-0.2c0.3,0,0.6,0,0.8,0.1   c0.2,0.1,0.4,0.2,0.6,0.4L14.6,25c-0.3-0.3-0.6-0.4-1-0.4c-0.2,0-0.5,0.1-0.7,0.2c-0.2,0.1-0.3,0.2-0.4,0.4   c-0.1,0.2-0.2,0.4-0.2,0.6c0,0.2,0.1,0.4,0.2,0.6c0.1,0.2,0.3,0.3,0.4,0.4c0.2,0.1,0.4,0.2,0.6,0.2c0.3,0,0.5-0.1,0.7-0.2V25.7z"></path>
	<path class="st9" d="M17.5,26.8c0.1-0.2,0.2-0.4,0.2-0.6c0-0.2-0.1-0.4-0.2-0.6s-0.3-0.2-0.6-0.2c-0.2,0-0.4,0.1-0.6,0.2   c-0.1,0.2-0.2,0.4-0.2,0.6c0,0.2,0.1,0.4,0.2,0.6c0.1,0.2,0.3,0.2,0.6,0.2C17.2,27,17.4,26.9,17.5,26.8 M16.2,27.4   c-0.2-0.1-0.4-0.3-0.5-0.5c-0.1-0.2-0.2-0.4-0.2-0.7c0-0.3,0.1-0.5,0.2-0.7c0.1-0.2,0.3-0.4,0.5-0.5c0.2-0.1,0.5-0.2,0.7-0.2   c0.3,0,0.5,0.1,0.7,0.2c0.2,0.1,0.4,0.3,0.5,0.5c0.1,0.2,0.2,0.4,0.2,0.7c0,0.3-0.1,0.5-0.2,0.7c-0.1,0.2-0.3,0.4-0.5,0.5   c-0.2,0.1-0.5,0.2-0.7,0.2C16.7,27.6,16.4,27.5,16.2,27.4"></path>
	<path class="st9" d="M20.7,26.8c0.1-0.2,0.2-0.4,0.2-0.6c0-0.2-0.1-0.4-0.2-0.6s-0.3-0.2-0.6-0.2c-0.2,0-0.4,0.1-0.6,0.2   c-0.1,0.2-0.2,0.4-0.2,0.6c0,0.2,0.1,0.4,0.2,0.6c0.1,0.2,0.3,0.2,0.6,0.2C20.4,27,20.6,26.9,20.7,26.8 M19.4,27.4   c-0.2-0.1-0.4-0.3-0.5-0.5c-0.1-0.2-0.2-0.4-0.2-0.7c0-0.3,0.1-0.5,0.2-0.7c0.1-0.2,0.3-0.4,0.5-0.5c0.2-0.1,0.5-0.2,0.7-0.2   c0.3,0,0.5,0.1,0.7,0.2c0.2,0.1,0.4,0.3,0.5,0.5c0.1,0.2,0.2,0.4,0.2,0.7c0,0.3-0.1,0.5-0.2,0.7c-0.1,0.2-0.3,0.4-0.5,0.5   c-0.2,0.1-0.5,0.2-0.7,0.2C19.9,27.6,19.6,27.5,19.4,27.4"></path>
	<path class="st9" d="M23.9,26.7c0.2-0.1,0.2-0.3,0.2-0.5c0-0.2-0.1-0.4-0.2-0.5c-0.1-0.1-0.3-0.2-0.6-0.2c-0.2,0-0.4,0.1-0.6,0.2   c-0.2,0.1-0.2,0.3-0.2,0.5c0,0.2,0.1,0.4,0.2,0.5c0.1,0.1,0.3,0.2,0.6,0.2C23.6,26.9,23.8,26.8,23.9,26.7 M24.8,24.9v2.2   c0,0.9-0.5,1.4-1.4,1.4c-0.3,0-0.5,0-0.7-0.1c-0.2-0.1-0.4-0.2-0.6-0.3l0.3-0.5c0.1,0.1,0.3,0.2,0.4,0.2C23,28,23.1,28,23.3,28   c0.3,0,0.5-0.1,0.6-0.2c0.1-0.1,0.2-0.3,0.2-0.6V27c-0.1,0.1-0.2,0.2-0.4,0.3c-0.2,0.1-0.3,0.1-0.5,0.1c-0.3,0-0.5-0.1-0.7-0.2   c-0.2-0.1-0.4-0.3-0.5-0.5c-0.1-0.2-0.2-0.4-0.2-0.7c0-0.3,0.1-0.5,0.2-0.7c0.1-0.2,0.3-0.3,0.5-0.4c0.2-0.1,0.4-0.2,0.7-0.2   c0.2,0,0.4,0,0.5,0.1c0.2,0.1,0.3,0.2,0.4,0.3v-0.4H24.8z"></path>
</g>
<rect x="25.6" y="23.8" class="st2" width="0.6" height="3.7"></rect>
<g>
	<defs>
		<polygon id="SVGID_15_" points="0,31 44,31 43.7,-0.1 -0.3,-0.1   "></polygon>
	</defs>
	<clipPath id="SVGID_16_">
		<use xlink:href="#SVGID_15_" style="overflow:visible;"></use>
	</clipPath>
	<path class="st10" d="M27.7,25.5c-0.1,0.1-0.2,0.3-0.3,0.5h1.5c0-0.2-0.1-0.3-0.2-0.5c-0.1-0.1-0.3-0.2-0.5-0.2   C28,25.3,27.8,25.4,27.7,25.5 M29.5,26.4h-2.1c0,0.2,0.1,0.4,0.3,0.5c0.2,0.1,0.3,0.2,0.6,0.2c0.3,0,0.5-0.1,0.7-0.3l0.3,0.4   c-0.1,0.1-0.3,0.2-0.5,0.3c-0.2,0.1-0.4,0.1-0.6,0.1c-0.3,0-0.5-0.1-0.8-0.2c-0.2-0.1-0.4-0.3-0.5-0.5c-0.1-0.2-0.2-0.4-0.2-0.7   c0-0.3,0.1-0.5,0.2-0.7c0.1-0.2,0.3-0.4,0.5-0.5c0.2-0.1,0.4-0.2,0.7-0.2c0.3,0,0.5,0.1,0.7,0.2c0.2,0.1,0.4,0.3,0.5,0.5   c0.1,0.2,0.2,0.4,0.2,0.7C29.5,26.2,29.5,26.3,29.5,26.4"></path>
	<path class="st10" d="M33.6,25.8c0.1-0.1,0.2-0.3,0.2-0.5c0-0.2-0.1-0.4-0.2-0.5c-0.1-0.1-0.4-0.2-0.6-0.2h-0.8V26H33   C33.2,26,33.4,25.9,33.6,25.8 M33.8,24.2c0.2,0.1,0.4,0.2,0.5,0.4c0.1,0.2,0.2,0.4,0.2,0.7c0,0.3-0.1,0.5-0.2,0.7   c-0.1,0.2-0.3,0.3-0.5,0.4c-0.2,0.1-0.5,0.1-0.8,0.1h-0.8v1h-0.6V24H33C33.3,24,33.5,24.1,33.8,24.2"></path>
</g>
<rect x="35.1" y="23.8" class="st2" width="0.6" height="3.7"></rect>
<g>
	<defs>
		<polygon id="SVGID_17_" points="0,31 44,31 43.7,-0.1 -0.3,-0.1   "></polygon>
	</defs>
	<clipPath id="SVGID_18_">
		<use xlink:href="#SVGID_17_" style="overflow:visible;"></use>
	</clipPath>
	<path class="st11" d="M37.9,27c0.1-0.1,0.2-0.2,0.3-0.3v-0.3h-0.6c-0.4,0-0.5,0.1-0.5,0.4c0,0.1,0,0.2,0.1,0.3   c0.1,0.1,0.2,0.1,0.4,0.1C37.6,27.1,37.8,27.1,37.9,27 M38.4,25.1c0.2,0.2,0.3,0.5,0.3,0.8v1.6h-0.6v-0.3c-0.1,0.1-0.2,0.2-0.3,0.3   c-0.1,0.1-0.3,0.1-0.5,0.1c-0.2,0-0.4,0-0.5-0.1c-0.1-0.1-0.3-0.2-0.3-0.3c-0.1-0.1-0.1-0.3-0.1-0.4c0-0.2,0.1-0.4,0.3-0.6   c0.2-0.1,0.5-0.2,0.8-0.2h0.7v0c0-0.2-0.1-0.3-0.2-0.4c-0.1-0.1-0.3-0.1-0.5-0.1c-0.1,0-0.3,0-0.4,0.1c-0.1,0-0.3,0.1-0.4,0.2   l-0.2-0.5c0.1-0.1,0.3-0.2,0.5-0.2c0.2-0.1,0.4-0.1,0.6-0.1C37.9,24.8,38.2,24.9,38.4,25.1"></path>
	<path class="st11" d="M42,24.9l-1.2,2.9c-0.1,0.3-0.3,0.5-0.4,0.6c-0.2,0.1-0.4,0.2-0.6,0.2c-0.1,0-0.3,0-0.4-0.1   c-0.1,0-0.2-0.1-0.3-0.2l0.2-0.5c0.1,0.1,0.1,0.1,0.2,0.1c0.1,0,0.2,0,0.2,0c0.1,0,0.2,0,0.3-0.1s0.1-0.1,0.2-0.3l0-0.1l-1.2-2.7   h0.6l0.8,2l0.8-2H42z"></path>
	<path class="st11" d="M10.5,24.2l-1.7-1l-1.4,1.3l1.3,1.2l1.8-1c0.1-0.1,0.2-0.2,0.2-0.3C10.7,24.3,10.6,24.2,10.5,24.2"></path>
</g>
<polygon class="st2" points="8.6,23.1 6.7,22 2.7,19.9 7.3,24.3 "></polygon>
<polygon class="st2" points="2.8,29.1 6.8,26.9 8.5,25.9 7.3,24.8 "></polygon>
<polygon class="st2" points="2.5,20.1 2.5,29 7,24.5 "></polygon>
</svg>
