<svg version="1.2" xmlns="http://www.w3.org/2000/svg" viewBox="0 0 583 137" width="250" height="59"><style></style><path  d="m61.4 136.1h73.2v-78.1l-49.2-6.6z"/><path  d="m0.7 40.4v95.7h31.3l25-88.3z"/><path  d="m134.6 2.1h-133.9v9.8l133.9 17.6z"/><path  d="m490.7 33.2q3.1-9.9 9.2-17.2 6.1-7.3 15.3-11.4 9.2-4.1 21.2-4.1 9.2 0 17.5 2.9 8.2 2.8 14.5 8.1 6.3 5.4 10 13.2 3.7 7.8 3.7 17.5 0 10.1-3.2 17.3-3.2 7.3-8.6 12.9-5.3 5.6-12.1 10.2-6.7 4.5-13.6 9-6.8 4.5-13.3 9.6-6.5 5.2-11.4 12h63v23.2h-97.9q0-11.6 3.4-20.1 3.3-8.6 9-15.4 5.7-6.7 13.4-12.4 7.7-5.7 16.3-11.7 4.4-3 9.3-6.1 5-3.2 9.1-7 4.1-3.8 6.8-8.6 2.8-4.7 2.8-10.8 0-9.7-5.6-15.1-5.6-5.5-14.4-5.5-5.9 0-10 2.8-4.1 2.8-6.6 7.2-2.4 4.5-3.5 9.9-1 5.5-1 10.8h-25.9q-0.4-11.4 2.6-21.2z"/><path  d="m204.1 15h-17.4v66.5h-16v-66.5h-17.4v-13.1h50.8z"/><path  d="m255.3 15h-28.4v18.9h26.8v13h-26.8v21.6h29.5v13h-45.5v-79.6h44.4z"/><path  d="m302.4 56.4h0.1v-54.5h14.7v79.6h-18.2l-19.6-55.7h-0.2v55.7h-14.6v-79.6h18.4z"/><path  d="m366.3 56.4h0.1v-54.5h14.7v79.6h-18.2l-19.5-55.7h-0.2v55.7h-14.7v-79.6h18.4z"/><path  d="m393.1 1.9h16.1v79.6h-16.1z"/><path  d="m434 59q0 2.8 0.4 5.1c0.3 1.5 0.9 2.8 1.7 3.9 0.8 1 1.9 1.8 3.3 2.4q2.1 0.9 5.2 0.9 3.7 0 6.6-2.4 2.9-2.4 2.9-7.4 0-2.7-0.7-4.6c-0.5-1.3-1.3-2.5-2.4-3.5q-1.7-1.6-4.4-2.9c-1.8-0.8-4-1.7-6.8-2.6q-5.3-1.8-9.2-3.9-3.9-2.1-6.5-4.9c-1.8-1.9-3.1-4.1-3.9-6.6q-1.2-3.7-1.2-8.6 0-11.8 6.6-17.6 6.6-5.8 18-5.8c3.6 0 6.9 0.4 9.9 1.2q4.5 1.2 7.8 3.8c2.2 1.7 3.9 3.9 5.1 6.7q1.8 4 1.8 9.7v2.2h-15.3c0-3.7-0.7-6.7-2-8.7q-2-3.1-6.7-3.1c-1.8 0-3.3 0.3-4.5 0.8q-1.7 0.8-2.8 2.1-1 1.2-1.4 2.9-0.4 1.7-0.4 3.5 0 3.6 1.5 6.1c1.1 1.7 3.3 3.2 6.7 4.6l12.4 5.4c3.1 1.3 5.6 2.7 7.5 4.2q2.9 2.2 4.6 4.6c1.2 1.7 2 3.6 2.4 5.6 0.5 2 0.7 4.2 0.7 6.6 0 8.4-2.4 14.5-7.3 18.3-4.9 3.9-11.7 5.8-20.4 5.8-9 0-15.5-2-19.4-5.9q-5.9-5.9-5.9-17v-3.2h16.1z"/><path  d="m175.5 137.1c-3 0-5.5-0.5-7.4-1.5q-2.7-1.5-4.2-4.3-1.4-2.7-1.9-6.7-0.4-3.8-0.4-8.4 0-4.6 0.4-8.5c0.3-2.6 0.9-4.8 1.9-6.7 1-1.8 2.4-3.3 4.2-4.3 1.9-1.1 4.3-1.6 7.4-1.6 2.9 0 5.2 0.5 6.9 1.4q2.6 1.5 3.8 3.6 1.3 2.3 1.6 4.8 0.3 2.5 0.3 4.7l-8.3 0.3c-0.2-3.1-0.5-5.2-1.2-6.6-0.7-1.2-1.8-1.8-3.6-1.8q-1.5 0-2.4 0.7-1 0.8-1.5 2.6c-0.4 1.2-0.6 2.8-0.7 4.7q-0.3 3-0.3 7.2 0 4.5 0.3 7.3 0.3 2.7 1 4.3 0.6 1.5 1.5 2 0.9 0.5 2.2 0.5 1 0 1.9-0.3c0.6-0.3 1.1-0.7 1.5-1.4 0.4-0.7 0.8-1.7 1.1-3q0.4-2 0.4-5.2l8.3-0.3c0.2 2.5 0 4.5-0.3 6.5-0.4 2-1 3.7-2 5.2-0.9 1.5-2.2 2.6-3.9 3.5-1.7 0.8-3.8 1.3-6.6 1.3z"/><path  d="m178.8 103.2q-1.1-1.9-3.8-1.9-1.6 0-2.5 0.8-1 0.8-1.6 2.6c-0.4 1.2-0.6 2.9-0.8 4.8q-0.2 2.9-0.2 7.2 0 4.6 0.3 7.4 0.3 2.8 1 4.3c0.4 1.1 1 1.7 1.6 2.1 0.7 0.4 1.4 0.5 2.3 0.5q1.1 0 2-0.3 0.9-0.4 1.6-1.5 0.7-1.1 1.1-3.1 0.4-2 0.4-5.2h8.1c0 2.1-0.2 4.2-0.5 6.1-0.4 2-1 3.7-1.9 5.2q-1.4 2.2-3.9 3.4c-1.7 0.8-3.8 1.2-6.5 1.2q-4.6 0-7.3-1.4c-1.8-1-3.1-2.4-4.1-4.2q-1.4-2.8-1.9-6.6-0.4-3.8-0.4-8.4 0-4.6 0.4-8.5 0.5-3.8 1.9-6.6 1.4-2.7 4.1-4.3 2.7-1.5 7.3-1.5 4.3 0 6.8 1.4 2.5 1.4 3.7 3.5c0.9 1.5 1.4 3.1 1.6 4.7 0.2 1.7 0.3 3.3 0.3 4.7h-8.1q0-4.3-1-6.4z"/><path  d="m235.6 136.5h-0.2-8.1l-0.2-18.1-9.3 0.2 0.3 17.6-8.3 0.3-0.3-40.4 8.3-0.3 0.3 15.7 9.2-0.3-0.2-15.1 8.3-0.3 0.2 40.4z"/><path  d="m217.8 96.1v15.4h9.5v-15.4h8.1v40.1h-8.1v-17.8h-9.5v17.8h-8v-40.1z"/><path fill-rule="evenodd" d="m286.6 136.4h-8.7l-2.1-8.5-10.5 0.1-1.6 8.3-8.6 0.1 10.4-40.4 10.2-0.1 10.8 40.2zm-15.9-32.6l-3.7 17.4 7.6-0.3z"/><path fill-rule="evenodd" d="m275.7 96.1l10.6 40.1h-8.4l-1.9-8.4h-10.7l-1.8 8.4h-8.4l10.6-40.1zm-1.1 25l-3.9-18.1h-0.1l-3.9 18.1z"/><path  d="m332.9 136.4h-0.3-9.2l-10.1-28.2 0.3 28-7.6 0.2-0.2-40.3 9.5-0.3 10.1 27.7-0.4-27.4 7.6-0.3 0.3 40.4z"/><path  d="m325.2 123.6h0.1v-27.5h7.3v40.1h-9.2l-9.9-28.1h-0.1v28.1h-7.4v-40.1h9.3z"/><path  d="m382 136.4h-0.3-9.2l-10.1-28.2 0.3 28-7.6 0.2-0.2-40.3 9.6-0.2 10 27.6-0.4-27.4 7.6-0.2 0.3 40.3z"/><path  d="m374.3 123.6h0.1v-27.5h7.3v40.1h-9.2l-9.9-28.1h-0.1v28.1h-7.4v-40.1h9.4z"/><path  d="m427.5 136.4h-0.2-23l-0.3-40.3 22.7-0.3 0.2 7-14.6 0.2 0.3 9.2 13.2-0.3 0.3 6.9-13.8 0.3 0.3 10.5 14.7-0.2 0.2 6.8z"/><path  d="m426.7 102.8h-14.4v9.4h13.5v6.6h-13.5v10.8h15v6.6h-23v-40.1h22.4z"/><path  d="m470.8 136.5h-0.2-22.4l-0.3-40.4 8.4-0.2 0.2 33.7 14.1-0.3 0.2 6.9z"/><path  d="m448.2 96.1h8.1v33.5h14.3v6.6h-22.4z"/><path fill-rule="evenodd" d="m473.4 7.5q-0.8 0.8-2 0.8-1.2 0-2-0.8-0.9-0.9-0.9-2.1 0.1-1.1 0.9-2 0.8-0.8 2-0.8 1.2 0 2 0.8 0.9 0.8 0.9 2 0 1.2-0.9 2.1zm-3.7-3.8q-0.8 0.7-0.8 1.7 0 1.1 0.8 1.8 0.7 0.7 1.7 0.7 1 0 1.8-0.7 0.7-0.7 0.7-1.8 0-1-0.7-1.7-0.8-0.7-1.8-0.7-1 0-1.7 0.7zm1.7 0.2q0.5 0 0.8 0.1 0.5 0.2 0.5 0.8 0 0.4-0.3 0.6-0.2 0.1-0.5 0.1 0.4 0.1 0.6 0.3 0.1 0.3 0.2 0.5v0.3q0 0.1 0 0.2 0 0.1 0 0.2h-0.5q0 0 0 0 0 0 0-0.1v-0.1-0.2q0-0.6-0.3-0.7-0.2-0.1-0.7-0.1h-0.4v1.2h-0.5v-3.1zm0.6 0.4q-0.3-0.1-0.7-0.1h-0.5v1.2h0.5q0.4 0 0.5-0.1 0.4-0.1 0.4-0.5 0-0.3-0.2-0.5z"/></svg>