                                 <svg version="1.2" xmlns="http://www.w3.org/2000/svg" viewBox="0 0 292 69" class="h-5 w-auto mr-3"><style></style><path fill-rule="evenodd" d="m30.7 68.1h36.6v-39.1l-24.6-3.3-12 42.4z"/><path fill-rule="evenodd" d="m0.3 20.2v47.9h15.7l12.5-44.2-28.2-3.7z"/><path fill-rule="evenodd" d="m67.3 1.1h-67v4.9l67 8.8v-13.7z"/><path  d="m245.4 16.6q1.5-4.9 4.5-8.6 3.1-3.6 7.7-5.7 4.6-2 10.6-2.1 4.6 0.1 8.7 1.5 4.2 1.4 7.3 4.1 3.1 2.6 5 6.5 1.9 3.9 1.9 8.8c0 3.2-0.6 6.2-1.6 8.7q-1.7 3.6-4.3 6.4-2.7 2.8-6.1 5.1-3.4 2.3-6.8 4.5-3.4 2.2-6.6 4.8-3.3 2.6-5.8 6h31.6v11.6h-49q0-5.8 1.7-10.1 1.7-4.3 4.5-7.6 2.9-3.4 6.7-6.3 3.9-2.8 8.2-5.8 2.1-1.5 4.6-3.1 2.5-1.5 4.5-3.4 2.1-1.9 3.5-4.3 1.4-2.4 1.4-5.5-0.1-4.8-2.9-7.5-2.8-2.7-7.1-2.7-3 0-5 1.3-2.1 1.4-3.3 3.7-1.3 2.2-1.8 4.9-0.5 2.7-0.5 5.4h-13q-0.2-5.7 1.4-10.6z"/><path  d="m102.1 7.5h-8.7v33.3h-8.1v-33.3h-8.7v-6.5h25.4c0 0 0 6.5 0.1 6.5z"/><path  d="m127.7 7.5h-14.2v9.4h13.3v6.6h-13.3v10.7h14.7v6.6h-22.8v-39.9h22.3v6.6z"/><path  d="m151.2 28.2h0.1v-27.2h7.3v39.8h-9.1l-9.8-27.9h-0.1v27.9h-7.3v-39.8h9.2l9.7 27.2z"/><path  d="m183.1 28.2h0.1v-27.2h7.4v39.8h-9.2l-9.7-27.9h-0.1v27.9h-7.4v-39.8h9.3z"/><path  d="m196.5 0.9h8.1v39.9h-8.1z"/><path  d="m217 29.5q0 1.4 0.2 2.6 0.2 1.1 0.8 1.9 0.7 0.8 1.7 1.2 1 0.4 2.6 0.5 1.8-0.1 3.3-1.2 1.5-1.2 1.5-3.7 0-1.4-0.4-2.3-0.4-1-1.2-1.8-0.8-0.8-2.2-1.4-1.4-0.7-3.4-1.3-2.7-0.9-4.6-2-2-1-3.3-2.4c-0.9-1-1.5-2.1-1.9-3.3q-0.6-1.9-0.6-4.3 0-5.9 3.3-8.8 3.3-2.9 9-2.9 2.7 0 4.9 0.5 2.3 0.6 3.9 1.9 1.7 1.4 2.6 3.4 0.9 2 0.9 4.9v1.1h-7.7q0-2.9-1-4.4-1-1.5-3.3-1.5c-0.9 0-1.7 0.1-2.2 0.4q-0.9 0.4-1.5 1-0.5 0.6-0.7 1.5-0.2 0.8-0.2 1.7 0 1.8 0.8 3.1 0.8 1.2 3.3 2.3l6.2 2.7q2.3 1 3.8 2.1 1.4 1 2.3 2.3 0.9 1.2 1.2 2.7 0.3 1.6 0.3 3.4 0 6.3-3.6 9.1-3.7 2.9-10.2 2.9c-4.3 0-7.8-1-9.7-3q-2.9-2.9-2.9-8.4v-1.6h8c0 0 0 1.1 0 1.1z"/><path  d="m87.7 68.5c-1.5 0-2.7-0.2-3.6-0.7q-1.4-0.8-2.2-2.2-0.7-1.3-0.9-3.3-0.2-1.9-0.2-4.2 0-2.3 0.2-4.2c0.1-1.4 0.5-2.5 0.9-3.4q0.8-1.4 2.2-2.2 1.3-0.8 3.6-0.8 2.2 0 3.5 0.7 1.3 0.8 1.9 1.9 0.7 1.1 0.8 2.3 0.2 1.3 0.2 2.4l-4.2 0.1c-0.1-1.5-0.3-2.6-0.6-3.2q-0.5-1-1.8-1-0.7 0-1.2 0.4-0.5 0.4-0.7 1.3c-0.2 0.6-0.4 1.4-0.4 2.4q-0.1 1.4-0.1 3.6 0 2.2 0.1 3.6 0.2 1.4 0.5 2.2 0.3 0.7 0.8 1 0.4 0.2 1 0.2 0.5 0 1-0.2 0.5-0.1 0.8-0.6c0.2-0.4 0.3-0.9 0.5-1.6q0.2-0.9 0.2-2.6l4.2-0.1c0.1 1.2 0 2.3-0.2 3.2q-0.3 1.5-1 2.6-0.6 1.2-1.9 1.8-1.3 0.6-3.3 0.6z"/><path  d="m89.4 51.6q-0.5-1-1.9-1-0.8 0-1.3 0.4-0.5 0.5-0.7 1.4-0.3 0.9-0.4 2.4-0.1 1.4-0.1 3.6-0.1 2.2 0.1 3.6 0.2 1.5 0.5 2.2 0.3 0.8 0.8 1 0.5 0.3 1.2 0.3 0.5 0 1-0.2 0.4-0.2 0.8-0.7 0.3-0.5 0.5-1.5 0.2-1 0.2-2.7h4q0 1.7-0.2 3.1-0.3 1.5-1 2.6-0.7 1.1-1.9 1.7-1.3 0.6-3.3 0.6-2.2 0-3.6-0.7-1.3-0.7-2.1-2.1-0.7-1.4-0.9-3.3-0.2-1.9-0.2-4.2c0-1.6 0.1-2.9 0.2-4.2q0.2-1.9 0.9-3.3 0.8-1.4 2.1-2.2 1.4-0.7 3.6-0.8 2.2 0 3.4 0.7 1.3 0.8 1.9 1.8 0.6 1.1 0.8 2.4 0.1 1.2 0.1 2.3h-4q0-2.2-0.5-3.2z"/><path fill-rule="evenodd" d="m117.8 68.2h-0.1-4.1l-0.1-9-4.6 0.1 0.1 8.8-4.1 0.1-0.1-20.2 4.1-0.1 0.1 7.8 4.6-0.1-0.1-7.6 4.2-0.1 0.1 20.2v0.1z"/><path  d="m108.9 48v7.7h4.8v-7.7h4v20.1h-4v-8.9h-4.8v8.9h-4v-20.1z"/><path  d="m143.3 68.2h-4.4l-1-4.3-5.2 0.1-0.9 4.1-4.3 0.1 5.2-20.2 5.1-0.1 5.5 20.2c0 0 0 0.1 0 0.1zm-7.9-16.3l-1.9 8.7 3.8-0.1c0 0-1.9-8.6-1.9-8.6z"/><path  d="m137.9 48l5.3 20.1h-4.3l-0.9-4.2h-5.3l-0.9 4.2h-4.3l5.3-20.1zm-0.5 12.6l-1.9-9.1h-0.1l-1.9 9.1z"/><path fill-rule="evenodd" d="m166.4 68.2h-0.1-4.6l-5.1-14.1 0.2 14-3.8 0.1-0.1-20.2 4.8-0.1 5 13.8-0.2-13.7 3.8-0.1 0.1 20.2v0.1z"/><path  d="m162.6 61.8v-13.8h3.7v20.1h-4.6l-4.9-14h-0.1v14h-3.7v-20.1h4.7z"/><path fill-rule="evenodd" d="m191 68.2h-0.1-4.7l-5-14.1 0.2 14-3.8 0.1-0.2-20.2 4.8-0.1 5 13.9-0.1-13.8 3.8-0.1 0.1 20.2v0.1z"/><path  d="m187.1 61.8h0.1v-13.8h3.7v20.1h-4.6l-5-14v14h-3.7v-20.1h4.6l5 13.8z"/><path fill-rule="evenodd" d="m213.7 68.2h-0.1-11.5l-0.1-20.2 11.4-0.1 0.1 3.5-7.3 0.1 0.1 4.6 6.6-0.1 0.1 3.4-6.8 0.1 0.1 5.3 7.3-0.1 0.1 3.4v0.1z"/><path  d="m213.4 51.4h-7.2v4.7h6.7v3.3h-6.7v5.4h7.4v3.3h-11.5v-20.1h11.3z"/><path fill-rule="evenodd" d="m235.4 68.2h-0.1-11.2l-0.1-20.2 4.1-0.1 0.1 16.9 7.1-0.1 0.1 3.4v0.1z"/><path  d="m224.1 48h4v16.8h7.2v3.3h-11.2c0 0 0-20.1 0-20.1z"/><path  d="m236.7 3.7q-0.4 0.5-1 0.5-0.6 0-1-0.5-0.4-0.4-0.4-1 0-0.6 0.4-1 0.4-0.4 1-0.4 0.6 0 1 0.4 0.4 0.4 0.4 1 0 0.6-0.4 1zm-1.9-1.8q-0.3 0.3-0.3 0.8 0 0.5 0.3 0.9 0.4 0.4 0.9 0.4 0.5 0 0.9-0.4 0.3-0.4 0.3-0.9 0-0.5-0.3-0.8-0.4-0.4-0.9-0.4-0.5 0-0.9 0.4zm0.9 0q0.3 0 0.4 0.1 0.3 0.1 0.3 0.4 0 0.2-0.2 0.3-0.1 0.1-0.2 0.1 0.2 0 0.2 0.1 0.1 0.2 0.1 0.3v0.1c0 0 0 0.1 0 0.1q0 0.1 0 0.1h-0.2q0 0 0 0 0 0 0 0v-0.1-0.1q0-0.3-0.2-0.4 0 0-0.3 0h-0.2v0.6h-0.3v-1.6c0 0 0.6 0 0.6 0zm0.3 0.3q-0.1-0.1-0.4-0.1h-0.2v0.6h0.3q0.1 0 0.2-0.1 0.2 0 0.2-0.2 0-0.2-0.1-0.2z"/></svg>
